<svg xmlns="http://www.w3.org/2000/svg" viewBox="0 0 100 125" x="0px" y="0px"><path d="M64.95,86.87c-.95,.38-1.92,.73-2.9,1.04,.8-.8,1.57-1.67,2.31-2.62l-1.55-4.17c-1.56,2.37-3.28,4.29-5.13,5.74-1.88,1.47-3.84,2.39-5.84,2.74v-13h9.29l-1.37-3.69h-7.93v-12.89h3.18c-.31-1.17-.09-2.43,.6-3.43,.06-.09,.13-.18,.2-.26h-3.98v-13.2h18.68c.19,2.17,.29,4.37,.29,6.6s-.1,4.43-.29,6.6h-6.82l10.09,3.99c.01-.1,.03-.2,.04-.3h14.86c-.48,1.8-1.08,3.56-1.81,5.29-.02,.05-.04,.1-.07,.15l2.52,1,.91,.36s.02-.05,.03-.07c2.28-5.39,3.44-11.12,3.44-17.02s-1.16-11.63-3.44-17.02c-2.2-5.21-5.35-9.88-9.37-13.9-4.01-4.01-8.69-7.17-13.9-9.37-5.39-2.28-11.12-3.44-17.02-3.44s-11.63,1.16-17.02,3.44c-5.21,2.2-9.88,5.35-13.9,9.37-4.01,4.01-7.17,8.69-9.37,13.9-2.28,5.39-3.44,11.12-3.44,17.02s1.16,11.63,3.44,17.02c2.2,5.21,5.35,9.88,9.37,13.9,4.01,4.01,8.69,7.17,13.9,9.37,5.39,2.28,11.12,3.44,17.02,3.44s11.07-1.05,16.23-3.11l-.33-.88-.95-2.58Zm25.08-37.15c0,2.23-.18,4.43-.54,6.6h-15.26c.18-2.17,.27-4.37,.27-6.6s-.09-4.43-.27-6.6h15.26c.36,2.17,.54,4.37,.54,6.6Zm-7.39-23.18c1.68,2.36,3.1,4.9,4.24,7.6,.73,1.73,1.34,3.49,1.81,5.29h-14.86c-.61-4.57-1.62-8.92-3-12.89h11.81Zm-17.06-13.7c4.77,2.02,9.05,4.9,12.72,8.58,.47,.47,.92,.95,1.37,1.43h-10.27c-.54-1.25-1.13-2.46-1.75-3.62-1.66-3.06-3.53-5.64-5.6-7.7,1.19,.38,2.37,.81,3.53,1.3Zm-13.74-2.98c2,.35,3.95,1.27,5.84,2.74,2.5,1.95,4.76,4.78,6.72,8.4,.33,.6,.64,1.22,.94,1.86h-13.5V9.85Zm0,16.69h15.06c.85,2.28,1.58,4.71,2.17,7.29,.42,1.83,.76,3.7,1.03,5.6h-18.26v-12.89Zm-30.15-5.12c3.68-3.68,7.96-6.56,12.72-8.58,1.16-.49,2.34-.92,3.53-1.3-2.06,2.05-3.94,4.63-5.6,7.7-.62,1.15-1.21,2.36-1.75,3.62h-10.27c.44-.49,.9-.97,1.37-1.43Zm-8.58,12.72c1.14-2.7,2.56-5.24,4.24-7.6h11.81c-1.38,3.98-2.39,8.32-3,12.89H11.3c.48-1.8,1.08-3.56,1.81-5.29Zm-3.15,15.58c0-2.23,.18-4.43,.54-6.6h15.26c-.18,2.17-.27,4.37-.27,6.6s.09,4.43,.27,6.6H10.51c-.36-2.17-.54-4.37-.54-6.6Zm7.39,23.18c-1.68-2.36-3.1-4.9-4.24-7.6-.73-1.73-1.34-3.49-1.81-5.29h14.86c.61,4.57,1.62,8.91,3,12.89h-11.81Zm17.06,13.7c-4.77-2.02-9.05-4.9-12.72-8.58-.47-.47-.92-.95-1.37-1.43h10.27c.54,1.25,1.13,2.46,1.75,3.62,1.66,3.06,3.53,5.64,5.6,7.7-1.19-.38-2.37-.81-3.53-1.3Zm13.74,2.98c-2-.35-3.95-1.27-5.84-2.74-2.5-1.95-4.76-4.78-6.72-8.4-.33-.6-.64-1.22-.94-1.86h13.5v13Zm0-16.69h-15.06c-.85-2.28-1.58-4.71-2.17-7.29-.42-1.83-.76-3.7-1.03-5.6h18.26v12.89Zm0-16.58H29.47c-.19-2.17-.29-4.37-.29-6.6s.1-4.43,.29-6.6h18.68v13.2Zm0-16.89H29.89c.27-1.9,.61-3.77,1.03-5.6,.59-2.58,1.32-5.02,2.17-7.29h15.06v12.89Zm0-16.58h-13.5c.3-.64,.62-1.26,.94-1.86,1.96-3.62,4.22-6.45,6.72-8.4,1.88-1.47,3.84-2.39,5.84-2.74v13Z"/><path d="M83.26,76.25l5.28-2.98,1.9-1.07c.91-.51,.82-1.85-.15-2.24l-2.02-.8-26.6-10.51-2.16-.85c-1-.39-1.99,.58-1.62,1.59l.81,2.18,9.95,26.86,.78,2.1c.37,.99,1.73,1.1,2.25,.18l1.1-1.95,3-5.34,10.09,10.22c.48,.49,1.26,.49,1.75,.02l5.66-5.47c.5-.48,.51-1.27,.02-1.76l-10.02-10.17Z"/></svg>